<?xml version="1.0" encoding="UTF-8"?>
<!DOCTYPE svg PUBLIC "-//W3C//DTD SVG 1.1//EN" "http://www.w3.org/Graphics/SVG/1.1/DTD/svg11.dtd">
<svg xmlns="http://www.w3.org/2000/svg" version="1.1" width="114px" height="114px" style="shape-rendering:geometricPrecision; text-rendering:geometricPrecision; image-rendering:optimizeQuality; fill-rule:evenodd; clip-rule:evenodd" xmlns:xlink="http://www.w3.org/1999/xlink">
<g><path style="opacity:1" fill="#fdfdfd" d="M -0.5,-0.5 C 37.5,-0.5 75.5,-0.5 113.5,-0.5C 113.5,37.5 113.5,75.5 113.5,113.5C 75.5,113.5 37.5,113.5 -0.5,113.5C -0.5,75.5 -0.5,37.5 -0.5,-0.5 Z"/></g>
<g><path style="opacity:1" fill="#57795d" d="M 44.5,9.5 C 42.4855,10.9238 40.1522,11.5905 37.5,11.5C 39.5145,10.0762 41.8478,9.40953 44.5,9.5 Z"/></g>
<g><path style="opacity:1" fill="#27572f" d="M 34.5,69.5 C 35.2891,69.2172 35.9558,68.7172 36.5,68C 33.854,67.5026 31.1873,67.3359 28.5,67.5C 12.1054,62.958 4.60538,52.2913 6,35.5C 10.1163,27.7168 15.9496,21.5502 23.5,17C 27.8632,14.3156 32.5299,12.4822 37.5,11.5C 40.1522,11.5905 42.4855,10.9238 44.5,9.5C 68.6782,4.68221 88.1782,12.0155 103,31.5C 107.662,51.6944 101.495,67.8611 84.5,80C 74.0866,86.8459 63.0866,88.1793 51.5,84C 46.9158,80.4072 43.4158,75.9072 41,70.5C 32.8868,76.6087 26.2201,83.9421 21,92.5C 20.2099,89.366 20.5432,86.366 22,83.5C 26.0608,78.6133 30.2275,73.9466 34.5,69.5 Z"/></g>
<g><path style="opacity:1" fill="#f8f9f8" d="M 97.5,35.5 C 98.1995,39.7978 98.5328,44.1311 98.5,48.5C 92.8889,69.625 79.2222,80.125 57.5,80C 52.8957,78.1339 49.8957,74.8006 48.5,70C 48.9783,68.6974 49.645,67.5307 50.5,66.5C 54.4002,63.9633 58.7336,62.9633 63.5,63.5C 65.7035,64.9462 68.0369,65.7796 70.5,66C 69.5,65 68.5,64 67.5,63C 73.1667,62.6667 78.8333,62.3333 84.5,62C 74.0521,60.2582 63.7188,60.0916 53.5,61.5C 52.5028,61.5299 51.8361,61.0299 51.5,60C 53.3749,55.2917 56.7082,52.125 61.5,50.5C 68.8635,50.8306 76.1968,50.4973 83.5,49.5C 82.675,48.6143 81.675,48.281 80.5,48.5C 78.2646,48.7947 76.2646,48.4614 74.5,47.5C 72.5,46.5 70.5,45.5 68.5,44.5C 74.217,40.3025 79.5503,35.6358 84.5,30.5C 82.8125,29.432 81.1459,29.5986 79.5,31C 74.579,34.6131 69.9123,38.4464 65.5,42.5C 63.6064,43.0476 61.9397,44.0476 60.5,45.5C 60.1667,44.3333 59.8333,43.1667 59.5,42C 60.6158,35.8155 61.4492,29.6488 62,23.5C 58.7341,32.2999 56.0675,41.2999 54,50.5C 52.9805,51.6872 51.8139,52.6872 50.5,53.5C 48.7299,43.8804 47.0632,34.2137 45.5,24.5C 45.2172,23.7109 44.7172,23.0442 44,22.5C 43.1925,26.0267 43.3592,29.3601 44.5,32.5C 45.4182,41.512 46.4182,50.512 47.5,59.5C 46.5041,59.5858 45.6708,59.2524 45,58.5C 43.7258,55.6089 42.2258,52.9422 40.5,50.5C 37.6554,42.1646 32.3221,36.3313 24.5,33C 30.9509,39.4318 36.2842,46.5985 40.5,54.5C 40.5751,57.2062 40.9084,59.8728 41.5,62.5C 25.9307,63.7419 15.9307,57.0752 11.5,42.5C 12.8886,34.8935 16.8886,29.0602 23.5,25C 39.7218,15.115 57.0551,12.7817 75.5,18C 84.5862,21.7 91.9195,27.5334 97.5,35.5 Z"/></g>
<g><path style="opacity:1" fill="#8aa890" d="M 45.5,24.5 C 44.5269,26.9479 44.1936,29.6146 44.5,32.5C 43.3592,29.3601 43.1925,26.0267 44,22.5C 44.7172,23.0442 45.2172,23.7109 45.5,24.5 Z"/></g>
<g><path style="opacity:1" fill="#37643e" d="M 68.5,44.5 C 68.1667,44.5 67.8333,44.5 67.5,44.5C 67.1667,43.5 66.5,42.8333 65.5,42.5C 69.9123,38.4464 74.579,34.6131 79.5,31C 81.1459,29.5986 82.8125,29.432 84.5,30.5C 79.5503,35.6358 74.217,40.3025 68.5,44.5 Z"/></g>
<g><path style="opacity:1" fill="#8aa190" d="M 97.5,35.5 C 98.9517,37.8476 99.6183,40.5143 99.5,43.5C 99.4932,45.3693 99.1599,47.036 98.5,48.5C 98.5328,44.1311 98.1995,39.7978 97.5,35.5 Z"/></g>
<g><path style="opacity:1" fill="#3a743d" d="M 40.5,50.5 C 40.5,51.8333 40.5,53.1667 40.5,54.5C 36.2842,46.5985 30.9509,39.4318 24.5,33C 32.3221,36.3313 37.6554,42.1646 40.5,50.5 Z"/></g>
<g><path style="opacity:1" fill="#b6c6b8" d="M 67.5,44.5 C 67.8333,44.5 68.1667,44.5 68.5,44.5C 70.5,45.5 72.5,46.5 74.5,47.5C 71.4231,47.821 69.0897,46.821 67.5,44.5 Z"/></g>
<g><path style="opacity:1" fill="#bfcec0" d="M 80.5,48.5 C 81.675,48.281 82.675,48.6143 83.5,49.5C 76.1968,50.4973 68.8635,50.8306 61.5,50.5C 67.8333,49.8333 74.1667,49.1667 80.5,48.5 Z"/></g>
<g><path style="opacity:1" fill="#2b6034" d="M 65.5,42.5 C 66.5,42.8333 67.1667,43.5 67.5,44.5C 69.0897,46.821 71.4231,47.821 74.5,47.5C 76.2646,48.4614 78.2646,48.7947 80.5,48.5C 74.1667,49.1667 67.8333,49.8333 61.5,50.5C 56.7082,52.125 53.3749,55.2917 51.5,60C 51.8361,61.0299 52.5028,61.5299 53.5,61.5C 57.5138,61.3345 61.5138,61.5012 65.5,62C 64.5842,62.2784 63.9175,62.7784 63.5,63.5C 58.7336,62.9633 54.4002,63.9633 50.5,66.5C 49.0427,64.3718 48.0427,62.0384 47.5,59.5C 46.4182,50.512 45.4182,41.512 44.5,32.5C 44.1936,29.6146 44.5269,26.9479 45.5,24.5C 47.0632,34.2137 48.7299,43.8804 50.5,53.5C 51.8139,52.6872 52.9805,51.6872 54,50.5C 56.0675,41.2999 58.7341,32.2999 62,23.5C 61.4492,29.6488 60.6158,35.8155 59.5,42C 59.8333,43.1667 60.1667,44.3333 60.5,45.5C 61.9397,44.0476 63.6064,43.0476 65.5,42.5 Z"/></g>
<g><path style="opacity:1" fill="#4a7753" d="M 53.5,61.5 C 63.7188,60.0916 74.0521,60.2582 84.5,62C 78.8333,62.3333 73.1667,62.6667 67.5,63C 68.5,64 69.5,65 70.5,66C 68.0369,65.7796 65.7035,64.9462 63.5,63.5C 63.9175,62.7784 64.5842,62.2784 65.5,62C 61.5138,61.5012 57.5138,61.3345 53.5,61.5 Z"/></g>
<g><path style="opacity:1" fill="#6e8a73" d="M 28.5,67.5 C 31.1873,67.3359 33.854,67.5026 36.5,68C 35.9558,68.7172 35.2891,69.2172 34.5,69.5C 32.5,68.8333 30.5,68.1667 28.5,67.5 Z"/></g>
</svg>
